# xmcd CD database file
# Copyright (C) 1996 Ti Kan
#
# Track frame offsets:
#  150
#  24257
#  43675
#  56652
#  80470
#  95147
#  115337
#  139372
#  162225
#  180340
#  197900
#
# Disc length: 3154 seconds
#
# Revision: 1
# Processed by: cddbd v1.4b41PL1 Copyright (c) Steve Scherf et al.
# Submitted via: CDWizzard Release:4.13
#
DISCID=940c500b
DTITLE=Various Artist - Super JAZZ.2
DYEAR=1900
DGENRE=
TTITLE0=The Albatross
TTITLE1=Autumn Leaves
TTITLE2=Anna LEE
TTITLE3=How Hight The Moon
TTITLE4=Fools Rush In
TTITLE5=The Wailer
TTITLE6=MILESTONE
TTITLE7=Off The Wall
TTITLE8=Daylie's Double
TTITLE9=Black Foot
TTITLE10=Sing, Sing, Sing
EXTD=
EXTT0=
EXTT1=
EXTT2=
EXTT3=
EXTT4=
EXTT5=
EXTT6=
EXTT7=
EXTT8=
EXTT9=
EXTT10=
PLAYORDER=
